<?xml version="1.0" encoding="UTF-8"?>
<svg id="Layer_1" data-name="Layer 1" xmlns="http://www.w3.org/2000/svg" viewBox="0 0 160 160">
  <defs>
    <style>
      .cls-1 {
        fill: #4cc2ff;
      }

      .cls-2 {
        fill: #155a80;
      }
    </style>
  </defs>
  <path class="cls-1" d="M20.59,49c0-1.89.33-3.71,1-5.48.67-1.77,1.58-3.37,2.74-4.81l10.52-12.61c1.49-1.81,3.26-3.18,5.32-4.11,2.06-.93,4.24-1.39,6.54-1.39h66.54c2.3,0,4.48.46,6.54,1.39,2.06.93,3.83,2.3,5.32,4.11l10.52,12.61c1.16,1.44,2.08,3.04,2.74,4.81.67,1.77,1,3.6,1,5.48v73.84c0,4.64-1.61,8.57-4.84,11.77-3.23,3.2-7.19,4.8-11.89,4.8,0,0-85.35,0-85.35,0-4.7,0-8.66-1.6-11.89-4.8-3.23-3.2-4.84-7.13-4.84-11.77V49ZM41.43,43.51h77.23l-5.47-6.76H46.82l-5.39,6.76Z"/>
  <path class="cls-2" d="M148.51,135.26c0,2.38-.86,4.43-2.59,6.16-1.73,1.73-3.78,2.59-6.16,2.59h-17.83c-2.32,0-4.55-.45-6.69-1.34-2.14-.89-4.05-2.17-5.72-3.84L24.8,54.13c-1.41-1.4-2.46-2.96-3.16-4.69-.7-1.73-1.05-3.55-1.05-5.48s.36-3.7,1.09-5.51c.73-1.81,1.79-3.48,3.19-5.01l13.01-13.22c1.41-1.4,3.02-2.45,4.84-3.16,1.82-.7,3.69-1.05,5.63-1.05s3.78.35,5.57,1.05c1.79.7,3.38,1.76,4.78,3.16l84.61,84.61c1.67,1.67,2.95,3.58,3.84,5.72s1.34,4.37,1.34,6.69c0,0,0,18.03,0,18.03Z"/>
</svg>